<svg xmlns="http://www.w3.org/2000/svg" viewBox="0 0 128 128">
  <path fill="#E87D0D" d="M32.5 60.7c-2.6 0-5.1.7-7.3 2-4.4 2.6-7.2 7.5-7.2 12.8 0 5.3 2.7 10.2 7.2 12.8 2.2 1.3 4.7 2 7.3 2s5.1-.7 7.3-2c4.4-2.6 7.2-7.5 7.2-12.8 0-5.3-2.7-10.2-7.2-12.8-2.2-1.3-4.7-2-7.3-2z"/>
  <path fill="#265787" d="M95.6 39.5H55.1l25.5-19.6c1.1-.8 1.3-2.4.5-3.5-.8-1.1-2.4-1.3-3.5-.5L45.3 39.5H32.5c-19.6 0-32.5 10.3-32.5 28 0 17.2 13.9 36 32.5 36 10.4 0 19.6-4.4 26-11.4l.3-.4 37.4.3c.1 0 .3 0 .4-.1 16.7-1.2 27.4-11.8 27.4-27.2-.1-14.5-11.5-25.2-27.9-25.2zM32.5 93.3c-11.9 0-22.5-11.1-22.5-25.8 0-14.2 9.8-22 22.5-22s22.5 7.8 22.5 22c0 14.7-10.6 25.8-22.5 25.8zm63.1-5.7l-29.3-.2c3.1-5.3 4.8-11.3 4.8-17.9 0-6.3-1.6-12.1-4.5-17.2h28.9c10.5 0 18.2 6.3 18.2 17.5.1 10.5-7.5 17.7-18.1 17.8z"/>
</svg>
