<svg xmlns="http://www.w3.org/2000/svg" viewBox="0 0 128 128">
  <path fill="#00599C" d="M117.5 33.5l.3-.2c-.6-1.1-1.5-2.1-2.4-2.6L67.1 2.9c-.8-.5-1.9-.7-3.1-.7-1.2 0-2.3.3-3.1.7l-48 27.9c-1.7 1-2.9 3.5-2.9 5.4v55.7c0 1.1.2 2.3.9 3.4l-.2.1c.5.8 1.2 1.5 1.9 1.9l48.2 27.9c.8.5 1.9.7 3.1.7 1.2 0 2.3-.3 3.1-.7l48-27.9c1.7-1 2.9-3.5 2.9-5.4V36.1c.1-1-.1-2.5-.4-2.6z"/>
  <path fill="#fff" d="M64 8.7l48 27.7v55.2L64 119.3 16 91.6V36.4L64 8.7z"/>
  <path fill="#00599C" d="M64 18.5L24.1 41.5v46.1L64 110.5l39.9-22.9V41.5L64 18.5zm0 82.1L30.8 82.1V47.9L64 29.4l33.2 18.5v34.2L64 100.6z"/>
  <path fill="#00599C" d="M85.4 64c0-11.8-9.6-21.4-21.4-21.4S42.6 52.2 42.6 64 52.2 85.4 64 85.4c5.9 0 11.2-2.4 15.1-6.2l-7.1-7.1c-2.1 2-4.9 3.2-8 3.2-6.5 0-11.8-5.3-11.8-11.8S57.5 52 64 52s11.8 5.3 11.8 11.8c0 1.4-.2 2.7-.6 3.9h-5v-4h-4v4h-4v4h4v4h4v-4h5c.3.1.6.2.9.2 5.7-.8 10.3-5.7 10.3-11.9z"/>
  <path fill="#00599C" d="M96 60h-4v-4h-4v4h-4v4h4v4h4v-4h4z"/>
  <path fill="#00599C" d="M112 60h-4v-4h-4v4h-4v4h4v4h4v-4h4z"/>
</svg>
