<svg xmlns="http://www.w3.org/2000/svg" viewBox="0 0 128 128">
  <path fill="#0065A9" d="M90.767 127.126a10.273 10.273 0 01-7.32-.244L4.312 94.3a6 6 0 01-3.312-5.4V39.108a6 6 0 013.31-5.399l17.337-8.164a6 6 0 016.361.632L100.964 80.9l34.01-25.89a4 4 0 015.026.498l10.46 10.461a4 4 0 01-.001 5.658L117.437 95.4l33.026 23.069a4 4 0 01-.363 6.685l-14.8 7.87a10 10 0 01-9.58-.58z"/>
  <path fill="#007ACC" d="M97.684 127.126a10.273 10.273 0 007.32-.244L184.139 94.3a6 6 0 003.312-5.4V39.108a6 6 0 00-3.31-5.399l-17.337-8.164a6 6 0 00-6.361.632L87.487 80.9 53.477 55.01a4 4 0 00-5.026.498L38.99 65.969a4 4 0 00.001 5.658L61.013 95.4 27.987 118.469a4 4 0 00.363 6.685l14.8 7.87a10 10 0 009.58-.58z"/>
  <path fill="#1F9CF0" d="M104.958 126.882a10.273 10.273 0 01-14.45-9.293V10.411a10.273 10.273 0 0114.45-9.293l76.112 35.535A10 10 0 01187 45.677v36.646a10 10 0 01-5.93 9.024z"/>
</svg>
